<svg width="201" height="201" viewBox="0 0 201 201" fill="none" xmlns="http://www.w3.org/2000/svg">
<path d="M199.583 100.5C199.583 93.0451 198.742 85.6139 197.076 78.3475L169.825 84.5957C171.021 89.8126 171.625 95.1477 171.625 100.5H199.583Z" fill="#F641FA" stroke="white"/>
<path d="M197.076 78.3475C193.954 64.7274 187.986 51.9214 179.566 40.7697C171.146 29.6179 160.463 20.3724 148.219 13.6397C135.974 6.90695 122.444 2.83915 108.517 1.70312C94.5898 0.56709 80.5797 2.38851 67.4058 7.04789L76.7283 33.4062C86.1865 30.061 96.245 28.7533 106.244 29.5689C116.243 30.3845 125.957 33.305 134.748 38.1387C143.539 42.9725 151.209 49.6103 157.254 57.6167C163.299 65.6231 167.583 74.8171 169.825 84.5957L197.076 78.3475Z" fill="#9C80EB" stroke="white"/>
<path d="M67.4058 7.04789C50.3331 13.0862 35.2408 23.6861 23.7673 37.6968C12.2938 51.7074 4.87762 68.5934 2.32389 86.5215C-0.229833 104.45 2.17649 122.735 9.2816 139.392C16.3867 156.049 27.9191 170.441 42.6267 181.006L58.9382 158.299C48.3789 150.714 40.0992 140.381 34.9981 128.422C29.897 116.463 28.1694 103.336 30.0028 90.4641C31.8363 77.5927 37.1607 65.4694 45.3981 55.4105C53.6355 45.3516 64.471 37.7414 76.7283 33.4062L67.4058 7.04789Z" fill="#1E26EE" stroke="white"/>
<path d="M42.6267 181.006C55.0471 189.928 69.3633 195.856 84.4555 198.325C99.5477 200.794 115.006 199.737 129.622 195.238C144.238 190.738 157.615 182.918 168.706 172.389C179.797 161.86 188.301 148.908 193.553 134.545L167.296 124.943C163.525 135.254 157.419 144.553 149.456 152.113C141.494 159.672 131.89 165.287 121.397 168.517C110.903 171.747 99.8045 172.506 88.9691 170.733C78.1337 168.961 67.8554 164.705 58.9382 158.299L42.6267 181.006Z" fill="#F14343" stroke="white"/>
<path d="M193.553 134.545C197.542 123.638 199.583 112.114 199.583 100.5H171.625C171.625 108.838 170.16 117.112 167.296 124.943L193.553 134.545Z" fill="#80EBCB" stroke="white"/>
</svg>
