<svg width="308" height="270" viewBox="0 0 308 270" fill="none" xmlns="http://www.w3.org/2000/svg">
<path fill-rule="evenodd" clip-rule="evenodd" d="M120.407 54.6603L123.245 51.5226L123.246 51.5236C139.508 64.51 156.075 81.6402 171.096 98.014L173.538 68.9371C173.615 67.8563 174.503 67.0101 175.593 66.982C176.867 66.9504 177.879 68.0429 177.745 69.3066L174.982 102.252C188.564 117.512 204.145 136.641 220.077 154.657H220.085C223.572 154.016 227.272 153.388 231.517 152.817L231.27 146.64C232.618 145.441 233.153 145.17 233.918 143.535C234.137 142.266 234.175 140.949 234.141 139.658L240.311 137.17C240.615 152.133 239.422 164.941 235.666 183.488H89.2353L88.7321 178.181L89.2353 176.415C88.0728 172.048 85.9946 166.909 84.187 162.665C84.187 162.665 84.2333 157.27 84.088 156.891L82.9332 153.811L115.64 156.07L115.301 150.492C111.273 150.541 106.961 150.714 102.497 150.893L102.46 150.895C95.0762 151.19 87.2768 151.502 79.6584 151.297L80.4998 148.627C90.0524 117.436 84.6195 99.8231 72.3335 85.5447L75.171 82.4727C87.0448 91.141 100.581 102.159 113.156 114.918L111.961 95.0728C111.807 92.9074 115.632 91.6433 116.167 94.8262L117.677 119.673C122.689 124.974 127.537 130.478 132.368 136.159C145.988 98.85 138.309 72.0003 120.407 54.6603H120.407ZM170.659 103.253C160.587 92.0354 149.578 80.6947 135.7 68.3364C145.241 85.8969 147.965 109.743 133.399 145.145C159.644 147.39 185.888 149.637 212.132 151.888C198.332 135.967 187.012 121.796 174.527 107.599L170.659 103.253ZM113.585 122.072C103.52 111.693 94.9641 103.599 82.2485 93.8323V93.833C90.4332 107.309 91.753 122.279 84.8056 147.075C88.4827 147.07 92.4071 146.97 96.4618 146.867L96.4785 146.866C106.71 146.607 117.769 146.326 127.773 147.477C128.801 145.077 129.485 143.526 130.545 140.873C125.701 135.173 119.59 128.196 113.585 122.072H113.585ZM180.831 131.854V119.323L180.87 119.284C180.832 119.208 180.755 119.093 180.639 119.016L159.511 106.868C159.241 106.715 158.741 106.715 158.472 106.868L145.926 114.149C145.772 114.226 145.695 114.379 145.733 114.494V130.896L166.092 142.622L167.285 143.313L167.708 143.543L180.831 135.993V131.893L180.87 131.854H180.831ZM150.929 115.759C151.044 115.682 151.198 115.644 151.314 115.567C152.391 114.954 152.391 113.958 151.391 113.344C151.275 113.268 151.121 113.191 151.006 113.153L156.855 109.78C156.933 109.857 157.048 109.934 157.163 110.01C158.241 110.624 159.973 110.624 161.05 110.01C161.166 109.934 161.281 109.857 161.359 109.78L175.598 117.981C175.405 118.058 175.213 118.135 175.059 118.211C173.982 118.824 173.982 119.821 175.059 120.434C175.213 120.511 175.405 120.587 175.598 120.664L169.671 124.075C169.555 123.96 169.402 123.883 169.248 123.768C168.17 123.155 166.438 123.155 165.361 123.768C165.284 123.806 165.207 123.883 165.13 123.921L150.929 115.759ZM156.817 113.996L155.201 113.076C155.085 113 155.085 112.846 155.201 112.77L156.125 112.233C156.24 112.156 156.471 112.156 156.625 112.233L158.241 113.153C158.395 113.229 158.395 113.383 158.241 113.459L157.317 113.996C157.202 114.072 156.971 114.072 156.817 113.996ZM167.439 114.456C165.092 113.115 161.359 113.115 159.049 114.456C156.74 115.797 156.779 117.943 159.087 119.284C161.436 120.626 165.169 120.626 167.478 119.284C169.786 117.943 169.748 115.797 167.439 114.456ZM160.512 118.863L160.05 118.595C159.973 118.556 159.973 118.518 160.05 118.518L160.589 118.211C160.242 117.943 160.05 117.675 160.011 117.368C159.973 117.062 160.166 116.832 160.55 116.563C160.627 116.525 160.781 116.525 160.858 116.563L161.667 117.023C161.744 117.062 161.782 117.138 161.705 117.177C161.513 117.292 161.436 117.407 161.436 117.522C161.436 117.675 161.513 117.79 161.705 117.905C161.859 117.981 162.051 118.02 162.205 118.02C162.397 117.981 162.551 117.943 162.705 117.867C162.859 117.752 162.974 117.675 162.974 117.56C163.011 117.452 162.945 117.345 162.843 117.174C162.835 117.163 162.828 117.151 162.82 117.138C162.513 116.717 162.359 116.41 162.32 116.142C162.282 115.912 162.474 115.644 162.897 115.414C163.244 115.222 163.668 115.107 164.168 115.107C164.591 115.107 165.015 115.184 165.438 115.376L166.015 115.031C166.092 114.992 166.207 114.992 166.284 115.031L166.746 115.299C166.824 115.337 166.824 115.414 166.746 115.452L166.169 115.797C166.438 116.027 166.553 116.257 166.515 116.525C166.477 116.793 166.284 117.023 165.976 117.215C165.9 117.253 165.746 117.253 165.669 117.215L164.86 116.755C164.783 116.717 164.745 116.64 164.822 116.602C164.976 116.487 165.053 116.372 165.092 116.295C165.13 116.18 165.053 116.065 164.899 115.989C164.745 115.912 164.552 115.874 164.398 115.874C164.245 115.874 164.091 115.95 163.937 116.027C163.783 116.104 163.706 116.18 163.706 116.295C163.67 116.403 163.735 116.51 163.838 116.681C163.845 116.693 163.852 116.704 163.86 116.717C164.129 117.138 164.283 117.483 164.322 117.752C164.322 118.02 164.129 118.25 163.745 118.48C163.36 118.671 162.936 118.786 162.474 118.786C162.09 118.786 161.705 118.71 161.32 118.556L160.781 118.863C160.704 118.901 160.589 118.901 160.512 118.863H160.512ZM168.054 126.872L179.254 120.396V122.695L167.67 129.401L147.311 117.675V115.529L167.016 126.872C167.285 127.025 167.785 127.025 168.054 126.872ZM147.311 121.737V119.553L166.053 130.36L167.247 131.049L167.67 131.279L179.254 124.573V126.681L167.708 133.502L147.311 121.737ZM169.209 119.744L168.285 120.281C168.131 120.357 168.131 120.511 168.285 120.587L169.902 121.507C170.017 121.584 170.248 121.584 170.403 121.507L171.326 120.971C171.48 120.894 171.48 120.741 171.326 120.664L169.709 119.744C169.594 119.668 169.363 119.668 169.209 119.744ZM147.311 125.799V123.615L166.092 134.46L167.285 135.15L167.708 135.38L179.254 128.673V130.819L167.67 137.526L147.311 125.799ZM179.254 132.736V134.958L167.708 141.665L147.311 129.9V127.715L166.053 138.522L167.247 139.212L167.67 139.442L179.254 132.736ZM144.074 150.295C145.73 152.342 147.451 154.472 149.121 156.544L141.862 153.783C135.551 151.386 127.835 150.625 119.549 150.515L119.904 156.363L129.671 157.038L129.984 158.622C130.396 160.751 131.146 162.303 132.162 163.247C133.177 164.187 134.496 164.737 136.839 164.553C145.251 164.363 155.128 163.889 165.628 163.215L166.551 152.225L144.074 150.295ZM212.421 156.15L170.758 152.578L169.892 162.911C189.866 161.218 200.509 158.634 212.422 156.15H212.421ZM231.987 179.272C233.277 171.873 233.642 163.591 234.355 156.602L234.356 156.602C229.491 157.462 224.442 158.433 219.194 159.443H219.194L219.19 159.444C196.139 163.878 169.25 169.051 137.153 168.742C133.952 168.987 131.201 168.091 129.292 166.319C127.818 164.952 127.236 162.977 126.644 161.013L88.1718 158.376C88.1959 158.886 88.2407 159.393 88.2855 159.899C88.3726 160.884 88.4597 161.868 88.3944 162.877C90.9382 166.083 92.3287 171.483 93.6323 176.382L93.0054 178.557L93.0708 179.272H231.987Z" fill="white"/>
<path d="M55.9921 238.899H48.1761V213.53L34.4236 237.622C34.0855 238.236 33.6132 238.701 33.0066 239.018C32.4 239.335 31.7487 239.493 31.0526 239.493C30.3764 239.493 29.745 239.335 29.1583 239.018C28.5716 238.701 28.1092 238.236 27.7711 237.622L13.9589 213.53V238.899H6.20264V199.598C6.20264 198.707 6.46615 197.915 6.99318 197.222C7.52021 196.529 8.2113 196.063 9.06648 195.826C9.48413 195.727 9.90178 195.692 10.3194 195.722C10.7371 195.751 11.1398 195.84 11.5276 195.989C11.9154 196.138 12.2685 196.345 12.5867 196.613C12.9049 196.88 13.1733 197.202 13.3921 197.578L31.0526 228.145L48.7131 197.578C49.1705 196.826 49.8019 196.291 50.6074 195.974C51.4129 195.657 52.2531 195.608 53.1282 195.826C53.9635 196.063 54.6496 196.529 55.1866 197.222C55.7236 197.915 55.9921 198.707 55.9921 199.598V238.899Z" fill="white"/>
<path d="M113.339 238.899H105.583V228.443H78.3164V238.899H70.5601V217.6C70.5601 214.491 71.0971 211.629 72.171 209.015C73.245 206.401 74.7366 204.153 76.6458 202.272C78.5551 200.391 80.8124 198.925 83.4177 197.875C86.023 196.826 88.867 196.301 91.9496 196.301H109.431C109.968 196.301 110.475 196.4 110.953 196.598C111.43 196.796 111.847 197.073 112.205 197.43C112.563 197.786 112.842 198.202 113.041 198.678C113.24 199.153 113.339 199.658 113.339 200.192V238.899ZM78.3164 220.719H105.583V204.025H91.9496C91.711 204.025 91.2088 204.059 90.4431 204.129C89.6774 204.198 88.7924 204.371 87.7881 204.648C86.7837 204.926 85.7247 205.351 84.611 205.926C83.4972 206.5 82.473 207.292 81.5383 208.302C80.6035 209.312 79.8329 210.575 79.2263 212.09C78.6197 213.605 78.3164 215.441 78.3164 217.6V220.719Z" fill="white"/>
<path d="M171.342 214.125C171.342 215.887 171.123 217.461 170.686 218.848C170.248 220.234 169.657 221.457 168.911 222.516C168.165 223.576 167.305 224.482 166.33 225.234C165.356 225.987 164.337 226.601 163.273 227.076C162.209 227.552 161.135 227.898 160.051 228.116C158.967 228.334 157.948 228.443 156.993 228.443H139.452V220.719H156.993C157.987 220.64 158.887 220.437 159.693 220.11C160.498 219.783 161.189 219.343 161.766 218.788C162.343 218.234 162.79 217.565 163.109 216.783C163.427 216.001 163.586 215.115 163.586 214.125V210.619C163.486 209.649 163.278 208.758 162.959 207.946C162.641 207.134 162.209 206.441 161.662 205.866C161.115 205.292 160.454 204.841 159.678 204.515C158.902 204.188 158.007 204.025 156.993 204.025H139.512C138.477 204.025 137.692 204.292 137.155 204.827C136.618 205.361 136.349 206.134 136.349 207.144V238.899H128.593V207.144C128.593 205.163 128.956 203.48 129.682 202.094C130.408 200.707 131.313 199.589 132.397 198.737C133.481 197.885 134.659 197.266 135.932 196.88C137.205 196.494 138.378 196.301 139.452 196.301H156.993C158.743 196.301 160.314 196.524 161.707 196.969C163.099 197.415 164.327 198.009 165.391 198.752C166.455 199.494 167.36 200.351 168.105 201.321C168.851 202.292 169.468 203.307 169.955 204.366C170.442 205.426 170.795 206.495 171.014 207.574C171.233 208.654 171.342 209.669 171.342 210.619L171.342 214.125Z" fill="white"/>
<path d="M219.71 221.492H195.188V213.709H219.71V221.492ZM223.17 204.025H192.085V238.899H184.329V200.193C184.329 199.658 184.429 199.153 184.627 198.678C184.826 198.202 185.1 197.786 185.448 197.43C185.796 197.073 186.209 196.796 186.686 196.598C187.163 196.4 187.68 196.301 188.237 196.301H223.17V204.025Z" fill="white"/>
<path d="M243.615 238.899H235.859V196.301H243.615V238.899Z" fill="white"/>
<path d="M301.797 235.602C301.797 236.156 301.693 236.671 301.484 237.146C301.275 237.622 300.996 238.033 300.648 238.379C300.3 238.726 299.888 238.998 299.41 239.196C298.933 239.394 298.426 239.493 297.889 239.493C297.412 239.493 296.929 239.404 296.442 239.226C295.955 239.047 295.522 238.76 295.144 238.364L266.804 208.896V238.899H259.048V199.598C259.048 198.806 259.272 198.088 259.719 197.445C260.167 196.801 260.738 196.321 261.434 196.004C262.17 195.707 262.926 195.633 263.702 195.781C264.477 195.93 265.143 196.291 265.7 196.865L294.041 226.304V196.301H301.797L301.797 235.602Z" fill="white"/>
<path fill-rule="evenodd" clip-rule="evenodd" d="M0 186.198H308V188.608H0V186.198Z" fill="white"/>
<path fill-rule="evenodd" clip-rule="evenodd" d="M308 248.394H0V245.984H308V248.394Z" fill="white"/>
<path fill-rule="evenodd" clip-rule="evenodd" d="M29.5287 82.1561C36.3646 66.0626 46.0145 51.8102 58.4785 39.399C70.9426 26.9876 85.2555 17.3785 101.417 10.5717C118.151 3.52388 135.678 0 154 0C172.322 0 189.849 3.52388 206.582 10.5717C222.744 17.3785 237.057 26.9876 249.521 39.399C261.985 51.8097 271.635 66.0621 278.471 82.1561C285.549 98.819 289.088 116.272 289.088 134.516C289.088 151.637 285.971 168.06 279.738 183.789H277.134C283.489 168.075 286.667 151.651 286.667 134.516C286.667 116.598 283.193 99.4572 276.243 83.0947C269.529 67.2892 260.051 53.292 247.81 41.1028C235.569 28.9131 221.512 19.4758 205.64 12.791C189.208 5.87007 171.995 2.40961 154 2.40961C136.005 2.40961 118.792 5.87007 102.36 12.791C86.4879 19.4757 72.4312 28.913 60.1895 41.1028C47.9481 53.2925 38.4707 67.2898 31.7575 83.0947C24.8073 99.4576 21.3322 116.598 21.3322 134.516C21.3322 151.652 24.5102 168.076 30.8663 183.789H28.2612C22.0286 168.06 18.9122 151.636 18.9122 134.516C18.9122 116.272 22.4511 98.8189 29.5287 82.1561H29.5287ZM86.0142 250.803C90.9471 253.661 96.0815 256.214 101.417 258.461C118.151 265.509 135.679 269.033 154 269.033C172.321 269.033 189.848 265.509 206.582 258.461C211.918 256.214 217.052 253.661 221.986 250.803H217.035C213.347 252.783 209.548 254.596 205.64 256.242C189.207 263.163 171.995 266.623 154 266.623C136.007 266.623 118.793 263.163 102.36 256.242C98.4512 254.596 94.6526 252.783 90.964 250.803H86.0142Z" fill="white"/>
</svg>
